<svg xmlns="http://www.w3.org/2000/svg" width="1260" height="2368" viewBox="0 0 1260 2368" font-family="Helvetica,Arial,sans-serif">
<defs><marker id="a_4a4a6a" markerWidth="9" markerHeight="9" refX="7.5" refY="3" orient="auto" markerUnits="strokeWidth"><path d="M0,0 L8,3 L0,6 z" fill="#4a4a6a"/></marker><marker id="a_8a8fb8" markerWidth="9" markerHeight="9" refX="7.5" refY="3" orient="auto" markerUnits="strokeWidth"><path d="M0,0 L8,3 L0,6 z" fill="#8a8fb8"/></marker></defs>
<rect width="1260" height="2368" fill="#ffffff"/>
<path d="M 900.0,114.0 L 900.0,191.0" fill="none" stroke="#4a4a6a" stroke-width="1.7" marker-end="url(#a_4a4a6a)"/>
<path d="M 900.0,245.0 L 900.0,319.0" fill="none" stroke="#4a4a6a" stroke-width="1.7" marker-end="url(#a_4a4a6a)"/>
<path d="M 585.2,629.0 L 434.8,703.0" fill="none" stroke="#4a4a6a" stroke-width="1.7" marker-end="url(#a_4a4a6a)"/>
<path d="M 640.0,885.0 L 640.0,959.0" fill="none" stroke="#4a4a6a" stroke-width="1.7" marker-end="url(#a_4a4a6a)"/>
<path d="M 380.0,1141.0 L 380.0,1215.0" fill="none" stroke="#4a4a6a" stroke-width="1.7" marker-end="url(#a_4a4a6a)"/>
<path d="M 380.0,1269.0 L 380.0,1343.0" fill="none" stroke="#4a4a6a" stroke-width="1.7" marker-end="url(#a_4a4a6a)"/>
<path d="M 380.0,1397.0 L 380.0,1471.0" fill="none" stroke="#4a4a6a" stroke-width="1.7" marker-end="url(#a_4a4a6a)"/>
<path d="M 380.0,1525.0 L 380.0,1599.0" fill="none" stroke="#4a4a6a" stroke-width="1.7" marker-end="url(#a_4a4a6a)"/>
<path d="M 1187.5,629.0 L 1188.8,629.5 Q 1190.0,630.0 1190.0,631.3 L 1190.0,1998.0 Q 1190.0,2010.0 1178.0,2010.0 L 470.0,2010.0" fill="none" stroke="#4a4a6a" stroke-width="1.7" marker-end="url(#a_4a4a6a)"/>
<path d="M 1206.8,501.0 L 1208.4,501.5 Q 1210.0,502.0 1210.0,503.7 L 1210.0,2126.0 Q 1210.0,2138.0 1198.0,2138.0 L 990.0,2138.0" fill="none" stroke="#4a4a6a" stroke-width="1.7" marker-end="url(#a_4a4a6a)"/>
<path d="M 900.0,2165.0 L 900.0,2242.0" fill="none" stroke="#4a4a6a" stroke-width="1.7" marker-end="url(#a_4a4a6a)"/>
<path d="M 900.0,373.0 L 900.0,447.0" fill="none" stroke="#8a8fb8" stroke-width="1.7" stroke-dasharray="6,5" marker-end="url(#a_8a8fb8)"/>
<path d="M 810.0,368.2 L 470.0,451.8" fill="none" stroke="#8a8fb8" stroke-width="1.7" stroke-dasharray="6,5" marker-end="url(#a_8a8fb8)"/>
<path d="M 946.4,373.0 L 1073.6,447.0" fill="none" stroke="#8a8fb8" stroke-width="1.7" stroke-dasharray="6,5" marker-end="url(#a_8a8fb8)"/>
<path d="M 810.0,474.0 L 470.0,474.0" fill="none" stroke="#8a8fb8" stroke-width="1.7" stroke-dasharray="6,5" marker-end="url(#a_8a8fb8)"/>
<path d="M 900.0,501.0 L 900.0,2111.0" fill="none" stroke="#8a8fb8" stroke-width="1.7" stroke-dasharray="6,5" marker-end="url(#a_8a8fb8)"/>
<path d="M 470.0,489.6 L 1030.0,586.4" fill="none" stroke="#8a8fb8" stroke-width="1.7" stroke-dasharray="6,5" marker-end="url(#a_8a8fb8)"/>
<path d="M 434.8,501.0 L 585.2,575.0" fill="none" stroke="#8a8fb8" stroke-width="1.7" stroke-dasharray="6,5" marker-end="url(#a_8a8fb8)"/>
<path d="M 380.0,501.0 L 380.0,703.0" fill="none" stroke="#8a8fb8" stroke-width="1.7" stroke-dasharray="6,5" marker-end="url(#a_8a8fb8)"/>
<path d="M 434.8,757.0 L 585.2,831.0" fill="none" stroke="#8a8fb8" stroke-width="1.7" stroke-dasharray="6,5" marker-end="url(#a_8a8fb8)"/>
<path d="M 380.0,757.0 L 380.0,1087.0" fill="none" stroke="#8a8fb8" stroke-width="1.7" stroke-dasharray="6,5" marker-end="url(#a_8a8fb8)"/>
<path d="M 550.0,986.0 L 82.0,986.0 Q 70.0,986.0 70.0,974.0 L 70.0,742.0 Q 70.0,730.0 82.0,730.0 L 290.0,730.0" fill="none" stroke="#8a8fb8" stroke-width="1.7" stroke-dasharray="6,5" marker-end="url(#a_8a8fb8)"/>
<path d="M 550.0,986.0 L 547.5,986.0 Q 545.0,986.0 545.0,983.5 L 545.0,860.5 Q 545.0,858.0 547.5,858.0 L 550.0,858.0" fill="none" stroke="#8a8fb8" stroke-width="1.7" stroke-dasharray="6,5" marker-end="url(#a_8a8fb8)"/>
<path d="M 585.2,1013.0 L 434.8,1087.0" fill="none" stroke="#8a8fb8" stroke-width="1.7" stroke-dasharray="6,5" marker-end="url(#a_8a8fb8)"/>
<path d="M 290.0,1613.5 L 261.9,1609.6 Q 250.0,1608.0 250.0,1620.0 L 250.0,1632.0 Q 250.0,1644.0 261.9,1642.4 L 290.0,1638.5" fill="none" stroke="#8a8fb8" stroke-width="1.7" stroke-dasharray="6,5" marker-end="url(#a_8a8fb8)"/>
<path d="M 434.8,1781.0 L 585.2,1855.0" fill="none" stroke="#8a8fb8" stroke-width="1.7" stroke-dasharray="6,5" marker-end="url(#a_8a8fb8)"/>
<path d="M 380.0,1781.0 L 380.0,1983.0" fill="none" stroke="#8a8fb8" stroke-width="1.7" stroke-dasharray="6,5" marker-end="url(#a_8a8fb8)"/>
<path d="M 550.0,1882.0 L 110.0,1882.0 Q 98.0,1882.0 98.0,1870.0 L 98.0,1638.0 Q 98.0,1626.0 110.0,1626.0 L 290.0,1626.0" fill="none" stroke="#8a8fb8" stroke-width="1.7" stroke-dasharray="6,5" marker-end="url(#a_8a8fb8)"/>
<path d="M 585.2,1909.0 L 434.8,1983.0" fill="none" stroke="#8a8fb8" stroke-width="1.7" stroke-dasharray="6,5" marker-end="url(#a_8a8fb8)"/>
<path d="M 290.0,2010.0 L 138.0,2010.0 Q 126.0,2010.0 126.0,1998.0 L 126.0,742.0 Q 126.0,730.0 138.0,730.0 L 290.0,730.0" fill="none" stroke="#8a8fb8" stroke-width="1.7" stroke-dasharray="6,5" marker-end="url(#a_8a8fb8)"/>
<path d="M 470.0,2032.2 L 810.0,2115.8" fill="none" stroke="#8a8fb8" stroke-width="1.7" stroke-dasharray="6,5" marker-end="url(#a_8a8fb8)"/>
<text x="48" y="42" font-size="17" fill="#1a1a1a" text-anchor="start" font-weight="bold">self-extension-agent — forward-граф LangGraph (реальный граф нод)</text>
<ellipse cx="900" cy="90" rx="75" ry="24" fill="#E6E6FA" stroke="#9370DB" stroke-width="1.5"/>
<text x="900" y="96" font-size="15" fill="#1a1a1a" text-anchor="middle" font-weight="bold">__start__</text>
<rect x="810" y="191" width="180" height="54" rx="9" fill="#ECECFF" stroke="#9370DB" stroke-width="1.5"/>
<text x="900" y="224" font-size="15" fill="#1a1a1a" text-anchor="middle">recall</text>
<rect x="810" y="319" width="180" height="54" rx="9" fill="#ECECFF" stroke="#9370DB" stroke-width="1.5"/>
<text x="900" y="352" font-size="15" fill="#1a1a1a" text-anchor="middle">reflexion</text>
<rect x="810" y="447" width="180" height="54" rx="9" fill="#ECECFF" stroke="#9370DB" stroke-width="1.5"/>
<text x="900" y="480" font-size="15" fill="#1a1a1a" text-anchor="middle">act</text>
<rect x="290" y="447" width="180" height="54" rx="9" fill="#ECECFF" stroke="#9370DB" stroke-width="1.5"/>
<text x="380" y="480" font-size="15" fill="#1a1a1a" text-anchor="middle">goal</text>
<rect x="1030" y="447" width="180" height="54" rx="9" fill="#ECECFF" stroke="#9370DB" stroke-width="1.5"/>
<text x="1120" y="480" font-size="15" fill="#1a1a1a" text-anchor="middle">fast_answer</text>
<rect x="550" y="575" width="180" height="54" rx="9" fill="#ECECFF" stroke="#9370DB" stroke-width="1.5"/>
<text x="640" y="608" font-size="15" fill="#1a1a1a" text-anchor="middle">clarify_gate</text>
<rect x="1030" y="575" width="180" height="54" rx="9" fill="#ECECFF" stroke="#9370DB" stroke-width="1.5"/>
<text x="1120" y="608" font-size="15" fill="#1a1a1a" text-anchor="middle">reason</text>
<rect x="290" y="703" width="180" height="54" rx="9" fill="#ECECFF" stroke="#9370DB" stroke-width="1.5"/>
<text x="380" y="736" font-size="15" fill="#1a1a1a" text-anchor="middle">router</text>
<rect x="550" y="831" width="180" height="54" rx="9" fill="#ECECFF" stroke="#9370DB" stroke-width="1.5"/>
<text x="640" y="864" font-size="15" fill="#1a1a1a" text-anchor="middle">create_skills</text>
<rect x="550" y="959" width="180" height="54" rx="9" fill="#ECECFF" stroke="#9370DB" stroke-width="1.5"/>
<text x="640" y="992" font-size="15" fill="#1a1a1a" text-anchor="middle">sgr_create</text>
<rect x="290" y="1087" width="180" height="54" rx="9" fill="#ECECFF" stroke="#9370DB" stroke-width="1.5"/>
<text x="380" y="1120" font-size="15" fill="#1a1a1a" text-anchor="middle">skill_selector</text>
<rect x="275" y="1215" width="210" height="54" rx="9" fill="#ECECFF" stroke="#9370DB" stroke-width="1.5"/>
<text x="380" y="1248" font-size="15" fill="#1a1a1a" text-anchor="middle">capability_research</text>
<rect x="290" y="1343" width="180" height="54" rx="9" fill="#ECECFF" stroke="#9370DB" stroke-width="1.5"/>
<text x="380" y="1376" font-size="15" fill="#1a1a1a" text-anchor="middle">decompose</text>
<rect x="290" y="1471" width="180" height="54" rx="9" fill="#ECECFF" stroke="#9370DB" stroke-width="1.5"/>
<text x="380" y="1504" font-size="15" fill="#1a1a1a" text-anchor="middle">skill_injection</text>
<rect x="290" y="1599" width="180" height="54" rx="9" fill="#ECECFF" stroke="#9370DB" stroke-width="1.5"/>
<text x="380" y="1632" font-size="15" fill="#1a1a1a" text-anchor="middle">step_executor</text>
<rect x="290" y="1727" width="180" height="54" rx="9" fill="#ECECFF" stroke="#9370DB" stroke-width="1.5"/>
<text x="380" y="1760" font-size="15" fill="#1a1a1a" text-anchor="middle">synthesize</text>
<rect x="550" y="1855" width="180" height="54" rx="9" fill="#ECECFF" stroke="#9370DB" stroke-width="1.5"/>
<text x="640" y="1888" font-size="15" fill="#1a1a1a" text-anchor="middle">review</text>
<rect x="290" y="1983" width="180" height="54" rx="9" fill="#ECECFF" stroke="#9370DB" stroke-width="1.5"/>
<text x="380" y="2016" font-size="15" fill="#1a1a1a" text-anchor="middle">validation</text>
<rect x="810" y="2111" width="180" height="54" rx="9" fill="#ECECFF" stroke="#9370DB" stroke-width="1.5"/>
<text x="900" y="2144" font-size="15" fill="#1a1a1a" text-anchor="middle">reflect</text>
<ellipse cx="900" cy="2266" rx="75" ry="24" fill="#E6E6FA" stroke="#9370DB" stroke-width="1.5"/>
<text x="900" y="2272" font-size="15" fill="#1a1a1a" text-anchor="middle" font-weight="bold">__end__</text>
<text x="48" y="2319" font-size="13" fill="#1a1a1a" text-anchor="start">── сплошная: фиксированный переход (add_edge)        ┄┄ пунктир: условный переход (add_conditional_edges)        ⟲ self: ретрай шага</text>
</svg>